PathFileType	4	(X/Y/Z)	/Users/itak/Documents/Research/Walk-IL/dataset/trc/00401_00012.trc
DataRate	CameraRate	NumFrames	NumMarkers	Units	OrigDataRate	OrigDataStartFrame	OrigNumFrames
100.000000	100.000000	4	53	mm	100.000000	635	726
Frame#	Time	RPSI			LPSI			L3			STRN			T10			C7			CLAV			RBAK			LBAK			LSHO			LUPA			LAEL			LAOL			LWTS			LWPS			LFRA			LIFD			LHPS			LHTS			RSHO			RUPA			RAEL			RAOL			RWTS			RWPS			RFRA			RIFD			RHTS			RHPS			RBHD			LFHD			RFHD			LBHD			LHIP			RHIP			RASI			LASI			LKNE			LTHI			LANK			LTIP			LTOE			LMT1			LMT5			LHEE			RKNE			RTHI			RANK			RTIP			RTOE			RMT1			RMT5			RHEE			
		X1	Y1	Z1	X2	Y2	Z2	X3	Y3	Z3	X4	Y4	Z4	X5	Y5	Z5	X6	Y6	Z6	X7	Y7	Z7	X8	Y8	Z8	X9	Y9	Z9	X10	Y10	Z10	X11	Y11	Z11	X12	Y12	Z12	X13	Y13	Z13	X14	Y14	Z14	X15	Y15	Z15	X16	Y16	Z16	X17	Y17	Z17	X18	Y18	Z18	X19	Y19	Z19	X20	Y20	Z20	X21	Y21	Z21	X22	Y22	Z22	X23	Y23	Z23	X24	Y24	Z24	X25	Y25	Z25	X26	Y26	Z26	X27	Y27	Z27	X28	Y28	Z28	X29	Y29	Z29	X30	Y30	Z30	X31	Y31	Z31	X32	Y32	Z32	X33	Y33	Z33	X34	Y34	Z34	X35	Y35	Z35	X36	Y36	Z36	X37	Y37	Z37	X38	Y38	Z38	X39	Y39	Z39	X40	Y40	Z40	X41	Y41	Z41	X42	Y42	Z42	X43	Y43	Z43	X44	Y44	Z44	X45	Y45	Z45	X46	Y46	Z46	X47	Y47	Z47	X48	Y48	Z48	X49	Y49	Z49	X50	Y50	Z50	X51	Y51	Z51	X52	Y52	Z52	X53	Y53	Z53	

636	6.350000000000001	-963.9890747070312	988.7469482421875	169.64404296875	-832.5999755859375	980.389892578125	169.5314788818359	-900.7460327148438	1053.795166015625	168.6529693603516	-914.9949951171875	1215.427856445312	395.0284729003906	-894.8760986328125	1157.1767578125	148.7673645019531	-889.2677612304688	1407.345336914062	182.0920104980469	-910.9127197265625	1333.95703125	339.7428283691406	-949.7750244140625	1260.521118164062	135.6390533447266	-785.553466796875	1371.439697265625	176.6233673095703	-746.0194091796875	1392.061157226562	266.3919982910156	-673.5534057617188	1275.294311523438	254.9452667236328	-645.3381958007812	1081.2744140625	297.3146667480469	-702.7841186523438	1052.35302734375	241.7866058349609	-680.9057006835938	892.6660766601562	429.8246459960938	-623.2657470703125	867.5261840820312	378.0072937011719	-635.4120483398438	983.3444213867188	331.2181091308594	-670.870361328125	718.7493896484375	474.9739990234375	-628.7869873046875	787.8193359375	412.9483947753906	-657.5762329101562	803.786376953125	467.6236877441406	-1050.37109375	1389.338256835938	222.1515197753906	-1106.831176757812	1325.109008789062	201.5717620849609	-1157.20068359375	1064.403076171875	207.5586090087891	-1064.2841796875	1051.446899414062	198.9449462890625	-1148.695556640625	853.8319091796875	345.3526916503906	-1207.152954101562	844.8771362304688	299.908447265625	-1179.402954101562	1001.694946289062	233.8916168212891	-1161.46337890625	678.7255859375	341.7183227539062	-1174.0859375	749.6497802734375	361.2327880859375	-1211.43798828125	756.8040161132812	303.2525939941406	-992.2391967773438	1592.674438476562	236.0691680908203	-821.6428833007812	1609.036010742188	336.0646362304688	-941.910400390625	1616.241943359375	358.8380126953125	-838.51025390625	1579.660522460938	189.9929504394531	-723.7765502929688	967.8018188476562	259.8817138671875	-1085.383911132812	961.128173828125	269.8251342773438	-1028.848266601562	973.3516845703125	385.7480163574219	-765.0531616210938	965.9611206054688	374.822021484375	-749.6394653320312	474.566650390625	283.9717102050781	-738.0855102539062	616.9041748046875	285.0566711425781	-796.4532470703125	44.11288452148438	174.9991302490234	-761.7824096679688	246.160400390625	225.2029266357422	-854.9212036132812	42.37209320068359	391.6817016601562	-888.8110961914062	41.80657577514648	310.2681884765625	-782.3229370117188	43.77267456054688	302.9463195800781	-854.43798828125	39.9885139465332	136.8499908447266	-1050.064086914062	474.0711975097656	267.1750183105469	-1076.348510742188	735.37255859375	323.0158081054688	-1014.716369628906	57.25942993164062	182.7657928466797	-1034.506103515625	347.6963195800781	265.4657592773438	-954.5823364257812	37.82656097412109	365.1883850097656	-923.47998046875	44.39509201049805	288.7254638671875	-1023.670715332031	46.54166030883789	266.6259765625	-959.8569946289062	46.50618362426758	110.9415893554688	
637	6.36	-963.982421875	988.7279052734375	169.6587982177734	-832.5847778320312	980.377685546875	169.5140075683594	-900.7719116210938	1053.7548828125	168.6379547119141	-914.9197998046875	1215.352416992188	395.0234985351562	-894.8523559570312	1157.087768554688	148.7292327880859	-889.2060546875	1407.285400390625	182.0614013671875	-910.81591796875	1333.844482421875	339.6831665039062	-949.6985473632812	1260.4443359375	135.6341705322266	-785.5349731445312	1371.350830078125	176.5805053710938	-745.93310546875	1392.00341796875	266.3896484375	-673.4517211914062	1275.183227539062	255.0975494384766	-645.5137939453125	1081.172241210938	297.4557189941406	-702.8521728515625	1052.264282226562	241.8796844482422	-681.6061401367188	890.8089599609375	428.0919799804688	-623.72412109375	866.4788818359375	376.1492614746094	-635.7984619140625	982.8391723632812	330.7543029785156	-671.9152221679688	716.097900390625	470.3243408203125	-629.4480590820312	786.1969604492188	409.7632141113281	-658.5674438476562	801.2144165039062	464.5827941894531	-1050.270141601562	1389.266479492188	222.1248016357422	-1106.667358398438	1325.067993164062	201.5380401611328	-1157.421264648438	1064.45166015625	207.5762939453125	-1064.409545898438	1051.2939453125	199.2397308349609	-1149.52294921875	854.2691040039062	345.9701538085938	-1207.797607421875	845.1370849609375	300.4027709960938	-1179.69580078125	1001.777038574219	234.0188293457031	-1162.557373046875	679.2162475585938	343.2161865234375	-1175.2236328125	750.2344970703125	362.3723754882812	-1212.259033203125	757.1861572265625	304.1537170410156	-993.0160522460938	1592.4453125	237.7980499267578	-820.9248046875	1609.114013671875	335.1540832519531	-940.8436279296875	1615.968627929688	359.7979125976562	-839.9788818359375	1579.853759765625	189.3387145996094	-723.7188720703125	967.7518920898438	259.825439453125	-1085.345825195312	960.9483032226562	269.7283020019531	-1028.824340820312	973.2923583984375	385.76416015625	-765.01220703125	965.7867431640625	374.7293395996094	-749.5709838867188	474.5133361816406	283.48779296875	-737.9414672851562	616.8816528320312	284.6834716796875	-796.5317993164062	44.06571578979492	174.9535522460938	-761.9194946289062	246.0695648193359	224.8658599853516	-854.9330444335938	42.3993034362793	391.6542053222656	-888.8471069335938	41.79006576538086	310.2283935546875	-782.3250122070312	43.78184509277344	302.933349609375	-854.4630126953125	39.90416717529297	136.82763671875	-1050.047485351562	474.0337524414062	267.0643310546875	-1076.387573242188	735.3637084960938	322.8936767578125	-1014.595825195312	57.1740837097168	182.7959442138672	-1034.499633789062	347.6572875976562	265.3800354003906	-954.5906982421875	37.84995651245117	365.160888671875	-923.4736328125	44.39419174194336	288.7088623046875	-1023.658752441406	46.53932952880859	266.6240844726562	-959.866455078125	46.43894577026367	110.9095077514648	
638	6.37	-963.9998779296875	988.6986694335938	169.6527252197266	-832.5958251953125	980.3445434570312	169.4629058837891	-900.7992553710938	1053.709594726562	168.5930328369141	-914.8518676757812	1215.28125	395.0137329101562	-894.8408203125	1157.018432617188	148.6758422851562	-889.1593627929688	1407.226318359375	182.0331268310547	-910.7119750976562	1333.709838867188	339.6244812011719	-949.6473999023438	1260.364624023438	135.6246490478516	-785.5237426757812	1371.266357421875	176.5391082763672	-745.8555908203125	1391.949829101562	266.3844299316406	-673.343505859375	1275.078125	255.2389831542969	-645.6788330078125	1081.073852539062	297.5639343261719	-702.913330078125	1052.190673828125	241.9029998779297	-682.3646850585938	888.9834594726562	426.2490234375	-624.1488037109375	865.4829711914062	374.2546081542969	-636.1575317382812	982.358154296875	330.225341796875	-672.9494018554688	713.4813232421875	465.4848022460938	-630.1054077148438	784.637451171875	406.4922180175781	-659.6024169921875	798.6821899414062	461.4088745117188	-1050.186279296875	1389.180053710938	222.1143493652344	-1106.52001953125	1325.002075195312	201.5395965576172	-1157.6318359375	1064.462890625	207.6861419677734	-1064.494995117188	1051.114624023438	199.6201019287109	-1150.23046875	854.622802734375	346.5063171386719	-1208.41259765625	845.3553466796875	300.9674377441406	-1179.9951171875	1001.845764160156	234.2308502197266	-1163.582275390625	679.6818237304688	344.769775390625	-1176.268798828125	750.7274780273438	363.5272827148438	-1213.031127929688	757.51953125	305.1268310546875	-993.7401123046875	1592.227416992188	239.4707489013672	-820.23486328125	1609.18115234375	334.2378234863281	-939.7770385742188	1615.712890625	360.7051391601562	-841.3939819335938	1580.013305664062	188.7180023193359	-723.6571044921875	967.6882934570312	259.7380676269531	-1085.304931640625	960.775390625	269.6248168945312	-1028.804077148438	973.232177734375	385.7730407714844	-764.9683227539062	965.619384765625	374.6299133300781	-749.5213012695312	474.4518432617188	283.0022583007812	-737.7655029296875	616.8646240234375	284.2837219238281	-796.575439453125	44.03430557250977	174.9215698242188	-762.10205078125	245.9564819335938	224.5185852050781	-854.9496459960938	42.42654418945312	391.6264343261719	-888.8800659179688	41.77237319946289	310.193115234375	-782.3285522460938	43.79489135742188	302.9198913574219	-854.4940185546875	39.82038879394531	136.8050384521484	-1050.037719726562	473.9942016601562	266.9710693359375	-1076.4384765625	735.3898315429688	322.7491760253906	-1014.476257324219	57.08865737915039	182.8258056640625	-1034.482055664062	347.6087341308594	265.3159484863281	-954.6002807617188	37.87324523925781	365.1351928710938	-923.4682006835938	44.39370346069336	288.6922912597656	-1023.643249511719	46.53191757202148	266.6161193847656	-959.878662109375	46.3711051940918	110.8772430419922	
639	6.38	-964.0397338867188	988.6647338867188	169.6294403076172	-832.6318359375	980.3001708984375	169.380615234375	-900.828125	1053.661499023438	168.5211029052734	-914.7897338867188	1215.216064453125	395.0003662109375	-894.8495483398438	1156.972900390625	148.6054382324219	-889.1267700195312	1407.171508789062	182.0104675292969	-910.6019897460938	1333.559448242188	339.571044921875	-949.6174926757812	1260.285888671875	135.6121063232422	-785.515869140625	1371.19189453125	176.5057830810547	-745.7869262695312	1391.903930664062	266.3780212402344	-673.2299194335938	1274.985473632812	255.3642272949219	-645.8258056640625	1080.977661132812	297.632568359375	-702.9737548828125	1052.139282226562	241.8546600341797	-683.1739501953125	887.2135620117188	424.3027038574219	-624.5465087890625	864.5504150390625	372.3409118652344	-636.4786987304688	981.9031372070312	329.6261291503906	-673.959716796875	710.9486083984375	460.5079040527344	-630.7568969726562	783.1600341796875	403.1724853515625	-660.6798706054688	796.2384033203125	458.1350708007812	-1050.119140625	1389.083862304688	222.1189270019531	-1106.399169921875	1324.914794921875	201.5704498291016	-1157.835815429688	1064.44091796875	207.8849334716797	-1064.5595703125	1050.917236328125	200.0697631835938	-1150.81201171875	854.871826171875	346.9457092285156	-1208.992065429688	845.5377197265625	301.6036987304688	-1180.306274414062	1001.916564941406	234.5295715332031	-1164.552856445312	680.1251831054688	346.3594665527344	-1177.2021484375	751.10498046875	364.66455078125	-1213.749267578125	757.802734375	306.1708068847656	-994.408447265625	1592.02392578125	241.0758056640625	-819.5753173828125	1609.237426757812	333.32666015625	-938.7251586914062	1615.478637695312	361.5569152832031	-842.7417602539062	1580.139770507812	188.1392059326172	-723.5879516601562	967.6168212890625	259.6160888671875	-1085.254516601562	960.6143188476562	269.5128173828125	-1028.78759765625	973.1754150390625	385.7765502929688	-764.9150390625	965.4638671875	374.5220336914062	-749.472900390625	474.388916015625	282.5243530273438	-737.5573120117188	616.8524780273438	283.8590393066406	-796.5916748046875	44.01426696777344	174.8978118896484	-762.3020629882812	245.8303985595703	224.1804809570312	-854.9682006835938	42.4537353515625	391.5993957519531	-888.9070434570312	41.7550163269043	310.1637573242188	-782.3323364257812	43.80841064453125	302.9054870605469	-854.529052734375	39.73904800415039	136.7825775146484	-1050.034790039062	473.9542541503906	266.8965759277344	-1076.495239257812	735.45166015625	322.5861206054688	-1014.376403808594	57.01203918457031	182.8469543457031	-1034.450317382812	347.5503540039062	265.2778625488281	-954.6083374023438	37.89591979980469	365.1112976074219	-923.4637451171875	44.39352416992188	288.6763610839844	-1023.628112792969	46.52228927612305	266.6013488769531	-959.8948364257812	46.30472946166992	110.8456497192383	
